{
  "ok": true,
  "path": "submission/DEMO_VIDEO.mp4",
  "duration_seconds": 164.112,
  "target_duration_seconds": "150–175",
  "video_stream": true,
  "audio_stream": true,
  "subtitle_stream": true,
  "subtitles": "default Russian mov_text track + submission/DEMO_VIDEO.srt",
  "source": "nine screenshots captured from the real localhost browser E2E",
  "synthetic_data_only": true,
  "paid_api_cost_usd": 0.0,
  "ffprobe": {
    "streams": [
      {
        "index": 0,
        "codec_name": "h264",
        "codec_long_name": "H.264 / AVC / MPEG-4 AVC / MPEG-4 part 10",
        "profile": "High",
        "codec_type": "video",
        "codec_tag_string": "avc1",
        "codec_tag": "0x31637661",
        "mime_codec_string": "avc1.640028",
        "width": 1920,
        "height": 1080,
        "coded_width": 1920,
        "coded_height": 1080,
        "has_b_frames": 2,
        "sample_aspect_ratio": "1:1",
        "display_aspect_ratio": "16:9",
        "pix_fmt": "yuvj420p",
        "level": 40,
        "color_range": "pc",
        "color_space": "bt470bg",
        "chroma_location": "left",
        "field_order": "progressive",
        "is_avc": "true",
        "nal_length_size": "4",
        "id": "0x1",
        "r_frame_rate": "30/1",
        "avg_frame_rate": "30/1",
        "time_base": "1/15360",
        "start_pts": 0,
        "start_time": "0.000000",
        "duration_ts": 2520064,
        "duration": "164.066667",
        "bit_rate": "162293",
        "bits_per_raw_sample": "8",
        "nb_frames": "4922",
        "extradata_size": 51,
        "disposition": {
          "default": 1,
          "dub": 0,
          "original": 0,
          "comment": 0,
          "lyrics": 0,
          "karaoke": 0,
          "forced": 0,
          "hearing_impaired": 0,
          "visual_impaired": 0,
          "clean_effects": 0,
          "attached_pic": 0,
          "timed_thumbnails": 0,
          "non_diegetic": 0,
          "captions": 0,
          "descriptions": 0,
          "metadata": 0,
          "dependent": 0,
          "still_image": 0,
          "multilayer": 0
        },
        "tags": {
          "language": "und",
          "handler_name": "VideoHandler",
          "encoder": "Lavc62.28.102 libx264"
        }
      },
      {
        "index": 1,
        "codec_name": "aac",
        "codec_long_name": "AAC (Advanced Audio Coding)",
        "profile": "LC",
        "codec_type": "audio",
        "codec_tag_string": "mp4a",
        "codec_tag": "0x6134706d",
        "mime_codec_string": "mp4a.40.2",
        "sample_fmt": "fltp",
        "sample_rate": "22050",
        "channels": 1,
        "channel_layout": "mono",
        "bits_per_sample": 0,
        "initial_padding": 0,
        "id": "0x2",
        "r_frame_rate": "0/0",
        "avg_frame_rate": "0/0",
        "time_base": "1/22050",
        "start_pts": 0,
        "start_time": "0.000000",
        "duration_ts": 3617788,
        "duration": "164.072018",
        "bit_rate": "100470",
        "nb_frames": "3534",
        "extradata_size": 5,
        "disposition": {
          "default": 1,
          "dub": 0,
          "original": 0,
          "comment": 0,
          "lyrics": 0,
          "karaoke": 0,
          "forced": 0,
          "hearing_impaired": 0,
          "visual_impaired": 0,
          "clean_effects": 0,
          "attached_pic": 0,
          "timed_thumbnails": 0,
          "non_diegetic": 0,
          "captions": 0,
          "descriptions": 0,
          "metadata": 0,
          "dependent": 0,
          "still_image": 0,
          "multilayer": 0
        },
        "tags": {
          "language": "und",
          "handler_name": "SoundHandler"
        }
      },
      {
        "index": 2,
        "codec_name": "mov_text",
        "codec_long_name": "MOV text",
        "codec_type": "subtitle",
        "codec_tag_string": "tx3g",
        "codec_tag": "0x67337874",
        "id": "0x3",
        "r_frame_rate": "0/0",
        "avg_frame_rate": "0/0",
        "time_base": "1/1000000",
        "start_pts": 0,
        "start_time": "0.000000",
        "duration_ts": 164112000,
        "duration": "164.112000",
        "bit_rate": "214",
        "nb_frames": "31",
        "extradata_size": 68,
        "disposition": {
          "default": 1,
          "dub": 0,
          "original": 0,
          "comment": 0,
          "lyrics": 0,
          "karaoke": 0,
          "forced": 0,
          "hearing_impaired": 0,
          "visual_impaired": 0,
          "clean_effects": 0,
          "attached_pic": 0,
          "timed_thumbnails": 0,
          "non_diegetic": 0,
          "captions": 0,
          "descriptions": 0,
          "metadata": 0,
          "dependent": 0,
          "still_image": 0,
          "multilayer": 0
        },
        "tags": {
          "language": "rus",
          "handler_name": "SubtitleHandler"
        }
      }
    ],
    "format": {
      "filename": "/Users/macbook/PycharmProjects/ouroboros/submission/DEMO_VIDEO.mp4",
      "nb_streams": 3,
      "nb_programs": 0,
      "nb_stream_groups": 0,
      "format_name": "mov,mp4,m4a,3gp,3g2,mj2",
      "format_long_name": "QuickTime / MOV",
      "start_time": "0.000000",
      "duration": "164.112000",
      "size": "5525327",
      "bit_rate": "269344",
      "probe_score": 100,
      "tags": {
        "major_brand": "isom",
        "minor_version": "512",
        "compatible_brands": "isomiso2avc1mp41",
        "encoder": "Lavf62.12.102"
      }
    }
  }
}
